<?xml version="1.0" encoding="UTF-8"?>
<svg version="1.1" xmlns="http://www.w3.org/2000/svg" width="128" height="124">
<path d="M0 0 C7.26 0 14.52 0 22 0 C22 0.66 22 1.32 22 2 C23.32 2 24.64 2 26 2 C26 2.66 26 3.32 26 4 C27.32 4 28.64 4 30 4 C30 4.66 30 5.32 30 6 C30.66 6 31.32 6 32 6 C32 6.66 32 7.32 32 8 C32.66 8 33.32 8 34 8 C34 8.66 34 9.32 34 10 C34.556875 10.061875 35.11375 10.12375 35.6875 10.1875 C39.027159 11.3608937 40.71500747 13.34446814 43 16 C43.8125 18.3125 43.8125 18.3125 44 20 C44.66 20 45.32 20 46 20 C46 20.66 46 21.32 46 22 C46.66 22 47.32 22 48 22 C48 22.66 48 23.32 48 24 C48.66 24 49.32 24 50 24 C50 24.66 50 25.32 50 26 C50.66 26 51.32 26 52 26 C52 26.66 52 27.32 52 28 C52.66 28 53.32 28 54 28 C54 29.32 54 30.64 54 32 C54.66 32 55.32 32 56 32 C56.2165625 33.7015625 56.2165625 33.7015625 56.4375 35.4375 C56.61171478 38.80777201 56.61171478 38.80777201 58 40 C58.52618714 45.70240021 57.83492674 50.60990271 56 56 C55.34 56 54.68 56 54 56 C54 57.32 54 58.64 54 60 C53.34 60 52.68 60 52 60 C52 61.32 52 62.64 52 64 C51.34 64 50.68 64 50 64 C50 64.66 50 65.32 50 66 C49.34 66 48.68 66 48 66 C48 66.66 48 67.32 48 68 C47.34 68 46.68 68 46 68 C46 68.66 46 69.32 46 70 C45.34 70 44.68 70 44 70 C44 70.66 44 71.32 44 72 C43.34 72 42.68 72 42 72 C42 72.66 42 73.32 42 74 C41.34 74 40.68 74 40 74 C40 74.66 40 75.32 40 76 C39.34 76 38.68 76 38 76 C37.79375 76.721875 37.5875 77.44375 37.375 78.1875 C35.52471012 81.97218384 33.39759562 83.52258653 30 86 C29.34 86 28.68 86 28 86 C28 86.66 28 87.32 28 88 C26.68 88 25.36 88 24 88 C24 88.66 24 89.32 24 90 C22.01432292 90.22786458 20.02864583 90.45572917 18.04296875 90.68359375 C15.80603607 90.97170735 15.80603607 90.97170735 13 92 C12.01 91.505 12.01 91.505 11 91 C9.12943209 90.7724985 7.25314042 90.59037189 5.375 90.4375 C3.87066406 90.31181641 3.87066406 90.31181641 2.3359375 90.18359375 C1.56507812 90.12300781 0.79421875 90.06242187 0 90 C0 89.34 0 88.68 0 88 C-1.32 88 -2.64 88 -4 88 C-4 87.34 -4 86.68 -4 86 C-4.61875 85.855625 -5.2375 85.71125 -5.875 85.5625 C-8 85 -8 85 -10 84 C-10 83.34 -10 82.68 -10 82 C-10.66 82 -11.32 82 -12 82 C-12 81.34 -12 80.68 -12 80 C-12.66 80 -13.32 80 -14 80 C-14 79.34 -14 78.68 -14 78 C-14.66 78 -15.32 78 -16 78 C-16 77.34 -16 76.68 -16 76 C-16.66 76 -17.32 76 -18 76 C-18 75.34 -18 74.68 -18 74 C-18.66 74 -19.32 74 -20 74 C-20 73.34 -20 72.68 -20 72 C-20.66 72 -21.32 72 -22 72 C-22 71.34 -22 70.68 -22 70 C-22.66 70 -23.32 70 -24 70 C-24 69.34 -24 68.68 -24 68 C-24.66 68 -25.32 68 -26 68 C-26 67.34 -26 66.68 -26 66 C-26.66 66 -27.32 66 -28 66 C-28 65.34 -28 64.68 -28 64 C-28.66 64 -29.32 64 -30 64 C-30 63.34 -30 62.68 -30 62 C-30.66 62 -31.32 62 -32 62 C-32 60.02 -32 58.04 -32 56 C-32.66 56 -33.32 56 -34 56 C-34 50.06 -34 44.12 -34 38 C-33.34 38 -32.68 38 -32 38 C-32 36.02 -32 34.04 -32 32 C-31.34 32 -30.68 32 -30 32 C-30 30.68 -30 29.36 -30 28 C-29.34 28 -28.68 28 -28 28 C-28 27.34 -28 26.68 -28 26 C-27.34 26 -26.68 26 -26 26 C-26 25.34 -26 24.68 -26 24 C-25.34 24 -24.68 24 -24 24 C-24 23.34 -24 22.68 -24 22 C-23.34 22 -22.68 22 -22 22 C-22 21.34 -22 20.68 -22 20 C-21.34 20 -20.68 20 -20 20 C-20 19.34 -20 18.68 -20 18 C-19.34 18 -18.68 18 -18 18 C-18 17.34 -18 16.68 -18 16 C-17.34 16 -16.68 16 -16 16 C-16 15.34 -16 14.68 -16 14 C-15.34 14 -14.68 14 -14 14 C-14 13.34 -14 12.68 -14 12 C-13.34 12 -12.68 12 -12 12 C-12 11.34 -12 10.68 -12 10 C-11.34 10 -10.68 10 -10 10 C-10 8.68 -10 7.36 -10 6 C-8.68 6 -7.36 6 -6 6 C-6 5.34 -6 4.68 -6 4 C-5.34 4 -4.68 4 -4 4 C-4 3.34 -4 2.68 -4 2 C-2.68 2 -1.36 2 0 2 C0 1.34 0 0.68 0 0 Z M10 26 C10 26.66 10 27.32 10 28 C8.02 28.66 6.04 29.32 4 30 C4 30.66 4 31.32 4 32 C3.34 32 2.68 32 2 32 C2 32.66 2 33.32 2 34 C1.34 34 0.68 34 0 34 C0 34.66 0 35.32 0 36 C-0.66 36 -1.32 36 -2 36 C-2 36.66 -2 37.32 -2 38 C-2.66 38 -3.32 38 -4 38 C-4 38.66 -4 39.32 -4 40 C-4.66 40 -5.32 40 -6 40 C-6 43.3 -6 46.6 -6 50 C-5.34 50 -4.68 50 -4 50 C-4 50.66 -4 51.32 -4 52 C-3.34 52 -2.68 52 -2 52 C-2 52.66 -2 53.32 -2 54 C-1.34 54 -0.68 54 0 54 C0 54.66 0 55.32 0 56 C0.66 56 1.32 56 2 56 C2 56.66 2 57.32 2 58 C2.66 58 3.32 58 4 58 C4 58.66 4 59.32 4 60 C4.66 60 5.32 60 6 60 C6 60.66 6 61.32 6 62 C11.05009595 62.93786082 11.05009595 62.93786082 16 62 C16 61.34 16 60.68 16 60 C16.53625 59.7525 17.0725 59.505 17.625 59.25 C20.6144977 57.67658016 23.32247689 56.06899513 26 54 C26 52.68 26 51.36 26 50 C26.66 50 27.32 50 28 50 C28 48.68 28 47.36 28 46 C28.66 46 29.32 46 30 46 C30 44.68 30 43.36 30 42 C29.34 42 28.68 42 28 42 C28 41.34 28 40.68 28 40 C27.34 40 26.68 40 26 40 C25.87625 39.13375 25.87625 39.13375 25.75 38.25 C24.76143565 35.28430694 23.39179647 33.99316373 21 32 C18.36777038 30.74563813 18.36777038 30.74563813 16 30 C16 29.34 16 28.68 16 28 C14.68 28 13.36 28 12 28 C12 27.34 12 26.68 12 26 C11.34 26 10.68 26 10 26 Z " fill="#887ED5" transform="translate(51,19)"/>
<path d="M0 0 C0.99 0 1.98 0 3 0 C3 0.66 3 1.32 3 2 C4.32 2 5.64 2 7 2 C7 2.66 7 3.32 7 4 C7.66 4 8.32 4 9 4 C9 4.66 9 5.32 9 6 C9.66 6 10.32 6 11 6 C11 6.66 11 7.32 11 8 C11.556875 8.061875 12.11375 8.12375 12.6875 8.1875 C16.027159 9.3608937 17.71500747 11.34446814 20 14 C20.8125 16.3125 20.8125 16.3125 21 18 C21.66 18 22.32 18 23 18 C23 18.66 23 19.32 23 20 C23.66 20 24.32 20 25 20 C25 20.66 25 21.32 25 22 C25.66 22 26.32 22 27 22 C27 22.66 27 23.32 27 24 C27.66 24 28.32 24 29 24 C29 24.66 29 25.32 29 26 C29.66 26 30.32 26 31 26 C31 27.32 31 28.64 31 30 C31.66 30 32.32 30 33 30 C33.2165625 31.7015625 33.2165625 31.7015625 33.4375 33.4375 C33.61171478 36.80777201 33.61171478 36.80777201 35 38 C35.52618714 43.70240021 34.83492674 48.60990271 33 54 C32.34 54 31.68 54 31 54 C31 55.32 31 56.64 31 58 C30.34 58 29.68 58 29 58 C29 59.32 29 60.64 29 62 C28.34 62 27.68 62 27 62 C27 62.66 27 63.32 27 64 C26.34 64 25.68 64 25 64 C25 64.66 25 65.32 25 66 C24.34 66 23.68 66 23 66 C23 66.66 23 67.32 23 68 C22.34 68 21.68 68 21 68 C21 68.66 21 69.32 21 70 C20.34 70 19.68 70 19 70 C19 70.66 19 71.32 19 72 C18.34 72 17.68 72 17 72 C17 72.66 17 73.32 17 74 C16.34 74 15.68 74 15 74 C14.79375 74.721875 14.5875 75.44375 14.375 76.1875 C12.52471012 79.97218384 10.39759562 81.52258653 7 84 C6.34 84 5.68 84 5 84 C5 84.66 5 85.32 5 86 C3.68 86 2.36 86 1 86 C1 86.66 1 87.32 1 88 C-0.98567708 88.22786458 -2.97135417 88.45572917 -4.95703125 88.68359375 C-7.19396393 88.97170735 -7.19396393 88.97170735 -10 90 C-10.99 89.505 -10.99 89.505 -12 89 C-13.87056791 88.7724985 -15.74685958 88.59037189 -17.625 88.4375 C-19.12933594 88.31181641 -19.12933594 88.31181641 -20.6640625 88.18359375 C-21.43492188 88.12300781 -22.20578125 88.06242187 -23 88 C-23 87.34 -23 86.68 -23 86 C-24.32 86 -25.64 86 -27 86 C-27 85.34 -27 84.68 -27 84 C-27.61875 83.855625 -28.2375 83.71125 -28.875 83.5625 C-31 83 -31 83 -33 82 C-33 81.34 -33 80.68 -33 80 C-33.66 80 -34.32 80 -35 80 C-35 79.34 -35 78.68 -35 78 C-35.66 78 -36.32 78 -37 78 C-37 77.34 -37 76.68 -37 76 C-37.66 76 -38.32 76 -39 76 C-39 75.34 -39 74.68 -39 74 C-39.66 74 -40.32 74 -41 74 C-41 73.34 -41 72.68 -41 72 C-41.66 72 -42.32 72 -43 72 C-43 71.34 -43 70.68 -43 70 C-43.66 70 -44.32 70 -45 70 C-45 69.34 -45 68.68 -45 68 C-45.66 68 -46.32 68 -47 68 C-47 67.34 -47 66.68 -47 66 C-47.66 66 -48.32 66 -49 66 C-49 65.34 -49 64.68 -49 64 C-49.66 64 -50.32 64 -51 64 C-51 63.34 -51 62.68 -51 62 C-51.66 62 -52.32 62 -53 62 C-53 61.34 -53 60.68 -53 60 C-53.66 60 -54.32 60 -55 60 C-55 58.02 -55 56.04 -55 54 C-55.66 54 -56.32 54 -57 54 C-57 48.06 -57 42.12 -57 36 C-56.01 36.33 -55.02 36.66 -54 37 C-53.97421875 38.0621875 -53.9484375 39.124375 -53.921875 40.21875 C-53.59836171 51.20236549 -53.59836171 51.20236549 -49 61 C-46.71809758 63.11890939 -44.76653461 64.61673269 -42 66 C-41.525625 66.804375 -41.05125 67.60875 -40.5625 68.4375 C-39.10335955 71.2355972 -39.10335955 71.2355972 -36 73 C-36 73.66 -36 74.32 -36 75 C-35.34 75 -34.68 75 -34 75 C-33.34 75.99 -32.68 76.98 -32 78 C-30.515 78.495 -30.515 78.495 -29 79 C-29 79.66 -29 80.32 -29 81 C-28.01 81 -27.02 81 -26 81 C-26 81.66 -26 82.32 -26 83 C-23.01632274 83.99455909 -20.7995808 84.19559632 -17.67578125 84.31640625 C-16.64775391 84.35830078 -15.61972656 84.40019531 -14.56054688 84.44335938 C-13.48869141 84.48267578 -12.41683594 84.52199219 -11.3125 84.5625 C-10.22904297 84.60568359 -9.14558594 84.64886719 -8.02929688 84.69335938 C-5.35299209 84.79946838 -2.67659474 84.90152361 0 85 C0 84.34 0 83.68 0 83 C2.97 82.505 2.97 82.505 6 82 C6 81.01 6 80.02 6 79 C6.66 79 7.32 79 8 79 C8 78.34 8 77.68 8 77 C8.66 77 9.32 77 10 77 C10 76.34 10 75.68 10 75 C10.66 75 11.32 75 12 75 C12.226875 74.4225 12.45375 73.845 12.6875 73.25 C14.32916107 70.43572387 16.43559053 68.97262267 19 67 C19.33 66.34 19.66 65.68 20 65 C20.66 65 21.32 65 22 65 C23.27781035 58.17809537 23.27781035 58.17809537 21.375 51.6875 C19.7256676 49.82115018 18.01118696 48.01118696 16.25 46.25 C15.5075 45.5075 14.765 44.765 14 44 C14 43.34 14 42.68 14 42 C13.34 42 12.68 42 12 42 C9.875 40.1875 9.875 40.1875 8 38 C8 37.01 8 36.02 8 35 C7.67 36.65 7.34 38.3 7 40 C6.34 40 5.68 40 5 40 C5 39.34 5 38.68 5 38 C4.34 38 3.68 38 3 38 C2.773125 37.05125 2.54625 36.1025 2.3125 35.125 C1.32587067 31.83684116 1.32587067 31.83684116 -1.4375 30.75 C-2.283125 30.5025 -3.12875 30.255 -4 30 C-4.99 29.34 -5.98 28.68 -7 28 C-7 27.34 -7 26.68 -7 26 C-8.32 26 -9.64 26 -11 26 C-11 25.34 -11 24.68 -11 24 C-11.66 24 -12.32 24 -13 24 C-13 24.66 -13 25.32 -13 26 C-16 28 -16 28 -19 28 C-19 28.66 -19 29.32 -19 30 C-19.66 30 -20.32 30 -21 30 C-21 30.66 -21 31.32 -21 32 C-21.66 32 -22.32 32 -23 32 C-22.41315734 28.4392925 -21.07231059 26.66986676 -18.625 24.0625 C-16.53002481 21.77125422 -14.89220095 19.81634236 -13.3125 17.125 C-11.81716343 14.70397889 -10.62612849 13.9961177 -8 13 C-8 12.34 -8 11.68 -8 11 C-6.75539217 10.32332002 -5.50403104 9.65905281 -4.25 9 C-3.55390625 8.62875 -2.8578125 8.2575 -2.140625 7.875 C0 7 0 7 4 7 C3.34 6.401875 2.68 5.80375 2 5.1875 C0 3 0 3 0 0 Z " fill="#6049E4" transform="translate(74,21)"/>
<path d="M0 0 C0.66 0 1.32 0 2 0 C2.495 1.485 2.495 1.485 3 3 C3.99 3.66 4.98 4.32 6 5 C6 5.66 6 6.32 6 7 C6.66 7 7.32 7 8 7 C12.5556028 11.42387453 17.64976838 16.56773008 18.3125 23.0625 C18.01111449 25.89552382 17.47900906 27.59661028 16 30 C15.34 30 14.68 30 14 30 C13.773125 30.5775 13.54625 31.155 13.3125 31.75 C11.67083893 34.56427613 9.56440947 36.02737733 7 38 C6.505 38.99 6.505 38.99 6 40 C5.34 40 4.68 40 4 40 C4 40.66 4 41.32 4 42 C3.34 42 2.68 42 2 42 C2 42.66 2 43.32 2 44 C1.34 44 0.68 44 0 44 C0 44.99 0 45.98 0 47 C-2.97 47.495 -2.97 47.495 -6 48 C-6 48.66 -6 49.32 -6 50 C-9.77076889 50.05799124 -13.54142334 50.09359306 -17.3125 50.125 C-18.38435547 50.14175781 -19.45621094 50.15851563 -20.56054688 50.17578125 C-21.58857422 50.18222656 -22.61660156 50.18867187 -23.67578125 50.1953125 C-24.62364502 50.20578613 -25.57150879 50.21625977 -26.5480957 50.22705078 C-29 50 -29 50 -32 48 C-32 47.34 -32 46.68 -32 46 C-32.99 46 -33.98 46 -35 46 C-35 45.34 -35 44.68 -35 44 C-35.9590625 43.8453125 -35.9590625 43.8453125 -36.9375 43.6875 C-37.618125 43.460625 -38.29875 43.23375 -39 43 C-39.495 41.515 -39.495 41.515 -40 40 C-38.68 40 -37.36 40 -36 40 C-36 40.66 -36 41.32 -36 42 C-26.33241557 40.38835389 -26.33241557 40.38835389 -19.125 34.3125 C-18.75375 33.549375 -18.3825 32.78625 -18 32 C-19.76589761 29.84377536 -19.76589761 29.84377536 -21.9375 29.6875 C-24.9398475 28.6867175 -25.51890639 26.69289746 -27 24 C-27.66 23.67 -28.32 23.34 -29 23 C-29 21.68 -29 20.36 -29 19 C-28.34 19 -27.68 19 -27 19 C-27 19.66 -27 20.32 -27 21 C-26.34 21 -25.68 21 -25 21 C-25 21.66 -25 22.32 -25 23 C-24.34 23 -23.68 23 -23 23 C-23 23.66 -23 24.32 -23 25 C-19.7 25 -16.4 25 -13 25 C-13 24.34 -13 23.68 -13 23 C-11.3203125 21.4921875 -11.3203125 21.4921875 -9.125 19.875 C-8.40570313 19.33617188 -7.68640625 18.79734375 -6.9453125 18.2421875 C-5 17 -5 17 -3 17 C-3 15.68 -3 14.36 -3 13 C-2.34 13 -1.68 13 -1 13 C-1 11.68 -1 10.36 -1 9 C-0.34 9 0.32 9 1 9 C0.505 4.545 0.505 4.545 0 0 Z " fill="#7565DF" transform="translate(80,56)"/>
<path d="M0 0 C0 0.99 0 1.98 0 3 C1.32 3.66 2.64 4.32 4 5 C4 5.66 4 6.32 4 7 C2.75108386 7.48198463 1.50081192 7.96045677 0.25 8.4375 C-0.44609375 8.70433594 -1.1421875 8.97117187 -1.859375 9.24609375 C-3.89059003 9.96146693 -5.9035291 10.51365652 -8 11 C-8 11.66 -8 12.32 -8 13 C-8.7425 13.556875 -9.485 14.11375 -10.25 14.6875 C-12.99781621 16.99816363 -14.30472272 19.11221637 -15.95703125 22.26171875 C-17.54633612 24.9105602 -19.79768768 26.85720963 -22 29 C-22.33 29.99 -22.66 30.98 -23 32 C-24.175625 32.0928125 -24.175625 32.0928125 -25.375 32.1875 C-28.14660995 32.72718933 -28.14660995 32.72718933 -29.25 35.0625 C-30.18213362 38.71335669 -30.61870735 42.25062223 -31 46 C-32.65 45.67 -34.3 45.34 -36 45 C-36 44.34 -36 43.68 -36 43 C-36.66 43 -37.32 43 -38 43 C-38 42.34 -38 41.68 -38 41 C-38.66 41 -39.32 41 -40 41 C-40 40.34 -40 39.68 -40 39 C-40.99 38.67 -41.98 38.34 -43 38 C-43.33 36.35 -43.66 34.7 -44 33 C-44.66 33 -45.32 33 -46 33 C-46 29.7 -46 26.4 -46 23 C-45.34 23 -44.68 23 -44 23 C-44 22.34 -44 21.68 -44 21 C-43.34 21 -42.68 21 -42 21 C-42 20.34 -42 19.68 -42 19 C-41.34 19 -40.68 19 -40 19 C-40 18.34 -40 17.68 -40 17 C-39.34 17 -38.68 17 -38 17 C-38 16.34 -38 15.68 -38 15 C-37.34 15 -36.68 15 -36 15 C-36 14.34 -36 13.68 -36 13 C-35.34 13 -34.68 13 -34 13 C-34 12.34 -34 11.68 -34 11 C-33.34 11 -32.68 11 -32 11 C-31.690625 10.38125 -31.38125 9.7625 -31.0625 9.125 C-30.375 7.75 -29.6875 6.375 -29 5 C-28.01 5 -27.02 5 -26 5 C-26 4.01 -26 3.02 -26 2 C-21.49368616 0.93389394 -17.04387624 0.67869223 -12.4375 0.4375 C-11.30538086 0.37272461 -11.30538086 0.37272461 -10.15039062 0.30664062 C-6.75947922 0.11842264 -3.39716842 0 0 0 Z " fill="#9E9AD1" transform="translate(74,21)"/>
<path d="M0 0 C0.66 0 1.32 0 2 0 C2 0.66 2 1.32 2 2 C2.66 2 3.32 2 4 2 C4 2.66 4 3.32 4 4 C4.556875 4.061875 5.11375 4.12375 5.6875 4.1875 C9.027159 5.3608937 10.71500747 7.34446814 13 10 C13.8125 12.3125 13.8125 12.3125 14 14 C14.66 14 15.32 14 16 14 C16 14.66 16 15.32 16 16 C16.66 16 17.32 16 18 16 C18 16.66 18 17.32 18 18 C18.66 18 19.32 18 20 18 C20 18.66 20 19.32 20 20 C20.66 20 21.32 20 22 20 C22 20.66 22 21.32 22 22 C22.66 22 23.32 22 24 22 C24 23.32 24 24.64 24 26 C24.66 26 25.32 26 26 26 C26.2165625 27.7015625 26.2165625 27.7015625 26.4375 29.4375 C26.61171478 32.80777201 26.61171478 32.80777201 28 34 C28.52618714 39.70240021 27.83492674 44.60990271 26 50 C25.34 50 24.68 50 24 50 C24 51.32 24 52.64 24 54 C23.34 54 22.68 54 22 54 C22 55.32 22 56.64 22 58 C21.34 58 20.68 58 20 58 C20 58.66 20 59.32 20 60 C19.34 60 18.68 60 18 60 C18 60.66 18 61.32 18 62 C17.34 62 16.68 62 16 62 C16 62.66 16 63.32 16 64 C15.34 64 14.68 64 14 64 C14 64.66 14 65.32 14 66 C13.34 66 12.68 66 12 66 C12 66.66 12 67.32 12 68 C11.34 68 10.68 68 10 68 C10 68.66 10 69.32 10 70 C9.34 70 8.68 70 8 70 C7.79375 70.721875 7.5875 71.44375 7.375 72.1875 C5.52471012 75.97218384 3.39759562 77.52258653 0 80 C-0.66 80 -1.32 80 -2 80 C-2 80.66 -2 81.32 -2 82 C-3.32 82 -4.64 82 -6 82 C-6 82.66 -6 83.32 -6 84 C-7.98567708 84.22786458 -9.97135417 84.45572917 -11.95703125 84.68359375 C-14.19396393 84.97170735 -14.19396393 84.97170735 -17 86 C-17.99 85.505 -17.99 85.505 -19 85 C-20.87056791 84.7724985 -22.74685958 84.59037189 -24.625 84.4375 C-26.12933594 84.31181641 -26.12933594 84.31181641 -27.6640625 84.18359375 C-28.43492188 84.12300781 -29.20578125 84.06242187 -30 84 C-30 83.34 -30 82.68 -30 82 C-31.32 82 -32.64 82 -34 82 C-34 81.34 -34 80.68 -34 80 C-34.61875 79.855625 -35.2375 79.71125 -35.875 79.5625 C-38 79 -38 79 -40 78 C-40 77.34 -40 76.68 -40 76 C-40.66 76 -41.32 76 -42 76 C-42 75.34 -42 74.68 -42 74 C-42.66 74 -43.32 74 -44 74 C-44 73.34 -44 72.68 -44 72 C-44.66 72 -45.32 72 -46 72 C-46 71.34 -46 70.68 -46 70 C-46.66 70 -47.32 70 -48 70 C-48 69.34 -48 68.68 -48 68 C-48.66 68 -49.32 68 -50 68 C-50 67.34 -50 66.68 -50 66 C-50.66 66 -51.32 66 -52 66 C-52 65.34 -52 64.68 -52 64 C-52.66 64 -53.32 64 -54 64 C-54 63.34 -54 62.68 -54 62 C-54.66 62 -55.32 62 -56 62 C-56 61.34 -56 60.68 -56 60 C-56.66 60 -57.32 60 -58 60 C-58 59.34 -58 58.68 -58 58 C-58.66 58 -59.32 58 -60 58 C-60 57.34 -60 56.68 -60 56 C-60.66 56 -61.32 56 -62 56 C-62 54.02 -62 52.04 -62 50 C-62.66 50 -63.32 50 -64 50 C-64 44.06 -64 38.12 -64 32 C-63.01 32.33 -62.02 32.66 -61 33 C-60.97421875 34.0621875 -60.9484375 35.124375 -60.921875 36.21875 C-60.59836171 47.20236549 -60.59836171 47.20236549 -56 57 C-53.71809758 59.11890939 -51.76653461 60.61673269 -49 62 C-48.525625 62.804375 -48.05125 63.60875 -47.5625 64.4375 C-46.10335955 67.2355972 -46.10335955 67.2355972 -43 69 C-43 69.66 -43 70.32 -43 71 C-42.34 71 -41.68 71 -41 71 C-40.34 71.99 -39.68 72.98 -39 74 C-37.515 74.495 -37.515 74.495 -36 75 C-36 75.66 -36 76.32 -36 77 C-35.01 77 -34.02 77 -33 77 C-33 77.66 -33 78.32 -33 79 C-30.01632274 79.99455909 -27.7995808 80.19559632 -24.67578125 80.31640625 C-23.64775391 80.35830078 -22.61972656 80.40019531 -21.56054688 80.44335938 C-20.48869141 80.48267578 -19.41683594 80.52199219 -18.3125 80.5625 C-17.22904297 80.60568359 -16.14558594 80.64886719 -15.02929688 80.69335938 C-12.35299209 80.79946838 -9.67659474 80.90152361 -7 81 C-7 80.34 -7 79.68 -7 79 C-4.03 78.505 -4.03 78.505 -1 78 C-1 77.01 -1 76.02 -1 75 C-0.34 75 0.32 75 1 75 C1 74.34 1 73.68 1 73 C1.66 73 2.32 73 3 73 C3 72.34 3 71.68 3 71 C3.66 71 4.32 71 5 71 C5.226875 70.4225 5.45375 69.845 5.6875 69.25 C7.32916107 66.43572387 9.43559053 64.97262267 12 63 C12.495 62.01 12.495 62.01 13 61 C13.66 61 14.32 61 15 61 C15.0825 60.46375 15.165 59.9275 15.25 59.375 C16 57 16 57 17.9375 54.375 C22.54286113 46.83895452 23.01127636 37.53105141 21 29 C20.01 28.34 19.02 27.68 18 27 C18 26.34 18 25.68 18 25 C17.34 25 16.68 25 16 25 C15.71125 24.030625 15.4225 23.06125 15.125 22.0625 C14.35785318 18.89335797 14.35785318 18.89335797 12 18 C11.375 15.4375 11.375 15.4375 11 13 C10.34 13 9.68 13 9 13 C7.59765625 11.57421875 7.59765625 11.57421875 6.0625 9.6875 C4.53623571 7.82553564 3.08879214 6.08099976 1.30859375 4.45703125 C0 3 0 3 0 0 Z " fill="#5547B7" transform="translate(81,25)"/>
<path d="M0 0 C0.99 0.33 1.98 0.66 3 1 C3.02578125 2.0621875 3.0515625 3.124375 3.078125 4.21875 C3.40163829 15.20236549 3.40163829 15.20236549 8 25 C10.28190242 27.11890939 12.23346539 28.61673269 15 30 C15.474375 30.804375 15.94875 31.60875 16.4375 32.4375 C17.89664045 35.2355972 17.89664045 35.2355972 21 37 C21 37.66 21 38.32 21 39 C21.66 39 22.32 39 23 39 C23.66 39.99 24.32 40.98 25 42 C26.485 42.495 26.485 42.495 28 43 C28 43.66 28 44.32 28 45 C28.99 45 29.98 45 31 45 C31 45.66 31 46.32 31 47 C33.98367726 47.99455909 36.2004192 48.19559632 39.32421875 48.31640625 C40.35224609 48.35830078 41.38027344 48.40019531 42.43945312 48.44335938 C43.51130859 48.48267578 44.58316406 48.52199219 45.6875 48.5625 C46.77095703 48.60568359 47.85441406 48.64886719 48.97070312 48.69335938 C51.64700791 48.79946838 54.32340526 48.90152361 57 49 C57 48.34 57 47.68 57 47 C59.97 46.505 59.97 46.505 63 46 C63 45.01 63 44.02 63 43 C63.66 43 64.32 43 65 43 C65 42.34 65 41.68 65 41 C66.98 40.67 68.96 40.34 71 40 C69.10019993 43.51463012 67.43364683 45.89550678 64 48 C63.34 48 62.68 48 62 48 C62 48.66 62 49.32 62 50 C60.68 50 59.36 50 58 50 C58 50.66 58 51.32 58 52 C56.01432292 52.22786458 54.02864583 52.45572917 52.04296875 52.68359375 C49.80603607 52.97170735 49.80603607 52.97170735 47 54 C46.01 53.505 46.01 53.505 45 53 C43.12943209 52.7724985 41.25314042 52.59037189 39.375 52.4375 C38.37210938 52.35371094 37.36921875 52.26992187 36.3359375 52.18359375 C35.56507812 52.12300781 34.79421875 52.06242187 34 52 C34 51.34 34 50.68 34 50 C32.68 50 31.36 50 30 50 C30 49.34 30 48.68 30 48 C29.38125 47.855625 28.7625 47.71125 28.125 47.5625 C26 47 26 47 24 46 C24 45.34 24 44.68 24 44 C23.34 44 22.68 44 22 44 C22 43.34 22 42.68 22 42 C21.34 42 20.68 42 20 42 C20 41.34 20 40.68 20 40 C19.34 40 18.68 40 18 40 C18 39.34 18 38.68 18 38 C17.34 38 16.68 38 16 38 C16 37.34 16 36.68 16 36 C15.34 36 14.68 36 14 36 C14 35.34 14 34.68 14 34 C13.34 34 12.68 34 12 34 C12 33.34 12 32.68 12 32 C11.34 32 10.68 32 10 32 C10 31.34 10 30.68 10 30 C9.34 30 8.68 30 8 30 C8 29.34 8 28.68 8 28 C7.34 28 6.68 28 6 28 C6 27.34 6 26.68 6 26 C5.34 26 4.68 26 4 26 C4 25.34 4 24.68 4 24 C3.34 24 2.68 24 2 24 C2 22.02 2 20.04 2 18 C1.34 18 0.68 18 0 18 C0 12.06 0 6.12 0 0 Z " fill="#48437C" transform="translate(17,57)"/>
<path d="M0 0 C7.26 0 14.52 0 22 0 C22 0.66 22 1.32 22 2 C19.0804957 2.9731681 16.94555049 3.1929546 13.89453125 3.31640625 C12.91162109 3.35830078 11.92871094 3.40019531 10.91601562 3.44335938 C9.37977539 3.50233398 9.37977539 3.50233398 7.8125 3.5625 C6.77673828 3.60568359 5.74097656 3.64886719 4.67382812 3.69335938 C2.1160181 3.79944366 -0.44188845 3.90150146 -3 4 C-3 4.99 -3 5.98 -3 7 C-3.99 7 -4.98 7 -6 7 C-6.309375 7.61875 -6.61875 8.2375 -6.9375 8.875 C-7.625 10.25 -8.3125 11.625 -9 13 C-9.66 13 -10.32 13 -11 13 C-11 13.66 -11 14.32 -11 15 C-11.66 15 -12.32 15 -13 15 C-13 15.66 -13 16.32 -13 17 C-13.66 17 -14.32 17 -15 17 C-15 17.66 -15 18.32 -15 19 C-15.66 19 -16.32 19 -17 19 C-17 19.66 -17 20.32 -17 21 C-17.66 21 -18.32 21 -19 21 C-19 21.66 -19 22.32 -19 23 C-19.66 23 -20.32 23 -21 23 C-21 23.66 -21 24.32 -21 25 C-21.66 25 -22.32 25 -23 25 C-23 27.64 -23 30.28 -23 33 C-23.928125 33.3403125 -23.928125 33.3403125 -24.875 33.6875 C-27.75644454 35.46721574 -28.03409716 36.75732619 -29 40 C-29.13760722 42.80993945 -29.19011573 45.51001924 -29.125 48.3125 C-29.11597656 49.05306641 -29.10695313 49.79363281 -29.09765625 50.55664062 C-29.07424213 52.37123467 -29.03837615 54.18566071 -29 56 C-29.66 55.67 -30.32 55.34 -31 55 C-31.33 47.41 -31.66 39.82 -32 32 C-31.34 32 -30.68 32 -30 32 C-30 30.68 -30 29.36 -30 28 C-29.34 28 -28.68 28 -28 28 C-28 27.34 -28 26.68 -28 26 C-27.34 26 -26.68 26 -26 26 C-26 25.34 -26 24.68 -26 24 C-25.34 24 -24.68 24 -24 24 C-24 23.34 -24 22.68 -24 22 C-23.34 22 -22.68 22 -22 22 C-22 21.34 -22 20.68 -22 20 C-21.34 20 -20.68 20 -20 20 C-20 19.34 -20 18.68 -20 18 C-19.34 18 -18.68 18 -18 18 C-18 17.34 -18 16.68 -18 16 C-17.34 16 -16.68 16 -16 16 C-16 15.34 -16 14.68 -16 14 C-15.34 14 -14.68 14 -14 14 C-14 13.34 -14 12.68 -14 12 C-13.34 12 -12.68 12 -12 12 C-12 11.34 -12 10.68 -12 10 C-11.34 10 -10.68 10 -10 10 C-10 8.68 -10 7.36 -10 6 C-8.68 6 -7.36 6 -6 6 C-6 5.34 -6 4.68 -6 4 C-5.34 4 -4.68 4 -4 4 C-4 3.34 -4 2.68 -4 2 C-2.68 2 -1.36 2 0 2 C0 1.34 0 0.68 0 0 Z " fill="#807AB8" transform="translate(51,19)"/>
<path d="M0 0 C0 3 0 3 -1 6 C-1.66 6 -2.32 6 -3 6 C-3.3403125 6.86625 -3.3403125 6.86625 -3.6875 7.75 C-5.32916107 10.56427613 -7.43559053 12.02737733 -10 14 C-10.33 14.66 -10.66 15.32 -11 16 C-11.66 16 -12.32 16 -13 16 C-13 16.66 -13 17.32 -13 18 C-13.66 18 -14.32 18 -15 18 C-15 18.66 -15 19.32 -15 20 C-15.66 20 -16.32 20 -17 20 C-17 20.99 -17 21.98 -17 23 C-19.97 23.495 -19.97 23.495 -23 24 C-23 24.66 -23 25.32 -23 26 C-26.77076889 26.05799124 -30.54142334 26.09359306 -34.3125 26.125 C-35.38435547 26.14175781 -36.45621094 26.15851563 -37.56054688 26.17578125 C-38.58857422 26.18222656 -39.61660156 26.18867187 -40.67578125 26.1953125 C-41.62364502 26.20578613 -42.57150879 26.21625977 -43.5480957 26.22705078 C-46 26 -46 26 -49 24 C-49 23.34 -49 22.68 -49 22 C-49.99 22 -50.98 22 -52 22 C-52 21.34 -52 20.68 -52 20 C-52.639375 19.896875 -53.27875 19.79375 -53.9375 19.6875 C-54.618125 19.460625 -55.29875 19.23375 -56 19 C-56.33 18.01 -56.66 17.02 -57 16 C-55.68 16 -54.36 16 -53 16 C-53 16.66 -53 17.32 -53 18 C-50.69 18 -48.38 18 -46 18 C-46.66 19.32 -47.32 20.64 -48 22 C-35.69131857 23.4665663 -27.53110492 24.02073661 -17 17 C-16.01 17 -15.02 17 -14 17 C-13.773125 16.443125 -13.54625 15.88625 -13.3125 15.3125 C-11.62632969 12.34162851 -9.44612884 10.39177042 -7 8 C-4.63268418 5.36255478 -2.31242917 2.68561658 0 0 Z " fill="#7367CE" transform="translate(97,80)"/>
<path d="M0 0 C0.66 0 1.32 0 2 0 C2 0.66 2 1.32 2 2 C2.66 2 3.32 2 4 2 C4 2.66 4 3.32 4 4 C4.556875 4.061875 5.11375 4.12375 5.6875 4.1875 C9.027159 5.3608937 10.71500747 7.34446814 13 10 C13.8125 12.3125 13.8125 12.3125 14 14 C14.66 14 15.32 14 16 14 C16 14.66 16 15.32 16 16 C16.66 16 17.32 16 18 16 C18 16.66 18 17.32 18 18 C18.66 18 19.32 18 20 18 C20 18.66 20 19.32 20 20 C20.66 20 21.32 20 22 20 C22 20.66 22 21.32 22 22 C22.66 22 23.32 22 24 22 C24 23.32 24 24.64 24 26 C24.66 26 25.32 26 26 26 C26.144375 27.134375 26.28875 28.26875 26.4375 29.4375 C26.61171478 32.80777201 26.61171478 32.80777201 28 34 C28.07179964 35.51928038 28.08392007 37.04167482 28.0625 38.5625 C28.05347656 39.38878906 28.04445313 40.21507812 28.03515625 41.06640625 C28.02355469 41.70449219 28.01195313 42.34257813 28 43 C27.01 43.495 27.01 43.495 26 44 C26 40.7 26 37.4 26 34 C24.515 33.505 24.515 33.505 23 33 C22.731875 32.175 22.46375 31.35 22.1875 30.5 C20.36785783 25.13684414 17.3975188 19.79600607 12.8046875 16.35546875 C12.20914063 15.90816406 11.61359375 15.46085937 11 15 C11 14.34 11 13.68 11 13 C10.34 13 9.68 13 9 13 C7.59765625 11.57421875 7.59765625 11.57421875 6.0625 9.6875 C4.53623571 7.82553564 3.08879214 6.08099976 1.30859375 4.45703125 C0 3 0 3 0 0 Z " fill="#3A2D74" transform="translate(81,25)"/>
<path d="M0 0 C0.66 0 1.32 0 2 0 C2.75 2.125 2.75 2.125 3 5 C1.1875 8.3125 1.1875 8.3125 -1 11 C-1.66 11 -2.32 11 -3 11 C-3 11.66 -3 12.32 -3 13 C-3.66 13 -4.32 13 -5 13 C-5 13.66 -5 14.32 -5 15 C-7.40488859 18.30672181 -8.81508228 18.96122693 -12.875 19.8125 C-18.12380434 20.19228362 -21.63463804 20.09822592 -25.875 16.6875 C-28 14 -28 14 -28 10 C-27.34 10 -26.68 10 -26 10 C-26 10.66 -26 11.32 -26 12 C-25.34 12 -24.68 12 -24 12 C-24 12.66 -24 13.32 -24 14 C-23.34 14 -22.68 14 -22 14 C-22 14.66 -22 15.32 -22 16 C-18.7 16 -15.4 16 -12 16 C-12 15.34 -12 14.68 -12 14 C-10.3203125 12.4921875 -10.3203125 12.4921875 -8.125 10.875 C-7.40570313 10.33617188 -6.68640625 9.79734375 -5.9453125 9.2421875 C-4 8 -4 8 -2 8 C-2 6.68 -2 5.36 -2 4 C-1.34 4 -0.68 4 0 4 C0 2.68 0 1.36 0 0 Z " fill="#47427A" transform="translate(79,65)"/>
<path d="M0 0 C6.46463538 2.09846803 11.70949007 7.8115153 15.6875 13.125 C16.5 16.484375 16.5 16.484375 16.6875 19.125 C16.0275 19.125 15.3675 19.125 14.6875 19.125 C14.6875 18.465 14.6875 17.805 14.6875 17.125 C14.0275 17.125 13.3675 17.125 12.6875 17.125 C12.3471875 15.701875 12.3471875 15.701875 12 14.25 C11.01337067 10.96184116 11.01337067 10.96184116 8.25 9.875 C7.404375 9.6275 6.55875 9.38 5.6875 9.125 C4.6975 8.465 3.7075 7.805 2.6875 7.125 C2.6875 6.465 2.6875 5.805 2.6875 5.125 C1.3675 5.125 0.0475 5.125 -1.3125 5.125 C-1.3125 4.465 -1.3125 3.805 -1.3125 3.125 C-1.9725 3.125 -2.6325 3.125 -3.3125 3.125 C-3.3125 3.785 -3.3125 4.445 -3.3125 5.125 C-6.3125 7.125 -6.3125 7.125 -9.3125 7.125 C-9.3125 7.785 -9.3125 8.445 -9.3125 9.125 C-9.9725 9.125 -10.6325 9.125 -11.3125 9.125 C-11.3125 9.785 -11.3125 10.445 -11.3125 11.125 C-11.9725 11.125 -12.6325 11.125 -13.3125 11.125 C-12.5747937 6.51433563 -10.13171537 4.32786691 -6.61328125 1.453125 C-4.06436072 -0.01823829 -2.89863543 -0.35514813 0 0 Z " fill="#433492" transform="translate(64.3125,41.875)"/>
<path d="M0 0 C0.99 0 1.98 0 3 0 C3 0.66 3 1.32 3 2 C4.32 2 5.64 2 7 2 C7.12375 3.670625 7.12375 3.670625 7.25 5.375 C7.57873787 9.05753944 7.57873787 9.05753944 10.0625 10.4375 C10.701875 10.623125 11.34125 10.80875 12 11 C12 11.66 12 12.32 12 13 C13.32 13.66 14.64 14.32 16 15 C16 15.66 16 16.32 16 17 C15.34 17 14.68 17 14 17 C14 16.34 14 15.68 14 15 C7.15416328 12.18231119 7.15416328 12.18231119 0 12 C-2.4742506 13.50017721 -4.74960184 15.18411676 -7 17 C-7.66 16.67 -8.32 16.34 -9 16 C-3.85714286 10.42857143 -3.85714286 10.42857143 0 10 C0 9.01 0 8.02 0 7 C1.32 7 2.64 7 4 7 C3.34 6.401875 2.68 5.80375 2 5.1875 C0 3 0 3 0 0 Z " fill="#604CD5" transform="translate(74,21)"/>
<path d="M0 0 C7.26 0 14.52 0 22 0 C22 0.66 22 1.32 22 2 C19.0804957 2.9731681 16.94555049 3.1929546 13.89453125 3.31640625 C12.91162109 3.35830078 11.92871094 3.40019531 10.91601562 3.44335938 C9.37977539 3.50233398 9.37977539 3.50233398 7.8125 3.5625 C6.77673828 3.60568359 5.74097656 3.64886719 4.67382812 3.69335938 C2.1160181 3.79944366 -0.44188845 3.90150146 -3 4 C-3 4.99 -3 5.98 -3 7 C-5.31 7.33 -7.62 7.66 -10 8 C-10 7.34 -10 6.68 -10 6 C-8.68 6 -7.36 6 -6 6 C-6 5.34 -6 4.68 -6 4 C-5.34 4 -4.68 4 -4 4 C-4 3.34 -4 2.68 -4 2 C-2.68 2 -1.36 2 0 2 C0 1.34 0 0.68 0 0 Z " fill="#4A496F" transform="translate(51,19)"/>
<path d="M0 0 C-2.65654657 3.73884332 -4.58110387 5.64978174 -9 7 C-9 7.66 -9 8.32 -9 9 C-10.32 9 -11.64 9 -13 9 C-13 9.66 -13 10.32 -13 11 C-14.98567708 11.22786458 -16.97135417 11.45572917 -18.95703125 11.68359375 C-21.19396393 11.97170735 -21.19396393 11.97170735 -24 13 C-24.66 12.34 -25.32 11.68 -26 11 C-25.360625 10.87625 -24.72125 10.7525 -24.0625 10.625 C-23.381875 10.41875 -22.70125 10.2125 -22 10 C-21.67 9.34 -21.34 8.68 -21 8 C-18.69 8 -16.38 8 -14 8 C-14 7.34 -14 6.68 -14 6 C-12.02 5.67 -10.04 5.34 -8 5 C-8 4.01 -8 3.02 -8 2 C-7.34 2 -6.68 2 -6 2 C-6 1.34 -6 0.68 -6 0 C-3 -1 -3 -1 0 0 Z " fill="#423D7C" transform="translate(88,98)"/>
<path d="M0 0 C0.66 0 1.32 0 2 0 C2 0.66 2 1.32 2 2 C2.66 2 3.32 2 4 2 C4 2.66 4 3.32 4 4 C4.66 4 5.32 4 6 4 C6 5.32 6 6.64 6 8 C6.66 8 7.32 8 8 8 C8.144375 9.134375 8.28875 10.26875 8.4375 11.4375 C8.61171478 14.80777201 8.61171478 14.80777201 10 16 C10.07179964 17.51928038 10.08392007 19.04167482 10.0625 20.5625 C10.05347656 21.38878906 10.04445313 22.21507813 10.03515625 23.06640625 C10.02355469 23.70449219 10.01195313 24.34257813 10 25 C9.34 25.33 8.68 25.66 8 26 C8 22.7 8 19.4 8 16 C7.01 15.67 6.02 15.34 5 15 C4.29373761 13.01363702 3.63106429 11.01151741 3 9 C2.46375 8.319375 1.9275 7.63875 1.375 6.9375 C-0.36073958 4.49168514 -0.24444395 2.93332739 0 0 Z " fill="#2F297E" transform="translate(99,43)"/>
<path d="M0 0 C0 0.99 0 1.98 0 3 C1.32 3.66 2.64 4.32 4 5 C4 5.66 4 6.32 4 7 C2.75108386 7.48198463 1.50081192 7.96045677 0.25 8.4375 C-0.79414062 8.83775391 -0.79414062 8.83775391 -1.859375 9.24609375 C-3.89059003 9.96146693 -5.9035291 10.51365652 -8 11 C-7.00269864 8.5067466 -6.34925469 7.22532561 -4.0625 5.75 C-2 5 -2 5 1 5 C-2.25753924 3.06290362 -4.65609928 2.76284555 -8.421875 2.8046875 C-9.44667969 2.81113281 -10.47148438 2.81757813 -11.52734375 2.82421875 C-13.12255859 2.84935547 -13.12255859 2.84935547 -14.75 2.875 C-15.82894531 2.88402344 -16.90789063 2.89304687 -18.01953125 2.90234375 C-20.67991278 2.92588695 -23.33984336 2.95877201 -26 3 C-26 2.67 -26 2.34 -26 2 C-21.49368616 0.93389394 -17.04387624 0.67869223 -12.4375 0.4375 C-11.68275391 0.39431641 -10.92800781 0.35113281 -10.15039062 0.30664062 C-6.75947922 0.11842264 -3.39716842 0 0 0 Z " fill="#938BD6" transform="translate(74,21)"/>
<path d="M0 0 C0 0.66 0 1.32 0 2 C-1.3921875 2.2165625 -1.3921875 2.2165625 -2.8125 2.4375 C-6.09317578 3.64580985 -6.09317578 3.64580985 -7.06640625 6.13671875 C-7.80550483 8.41114288 -8.45394826 10.67209519 -9 13 C-7.35 13.33 -5.7 13.66 -4 14 C-4.33 14.66 -4.66 15.32 -5 16 C-5.61488281 15.855625 -6.22976562 15.71125 -6.86328125 15.5625 C-7.67152344 15.376875 -8.47976562 15.19125 -9.3125 15 C-10.11300781 14.814375 -10.91351563 14.62875 -11.73828125 14.4375 C-14.10695938 13.90504177 -14.10695938 13.90504177 -17 14 C-16.07161713 12.68103535 -15.13194268 11.37001311 -14.1875 10.0625 C-13.66542969 9.33160156 -13.14335938 8.60070312 -12.60546875 7.84765625 C-11 6 -11 6 -8 5 C-8 4.34 -8 3.68 -8 3 C-2.25 0 -2.25 0 0 0 Z " fill="#6251CB" transform="translate(74,29)"/>
<path d="M0 0 C0.66 0 1.32 0 2 0 C2.33 0.99 2.66 1.98 3 3 C3.99 3.66 4.98 4.32 6 5 C6.77239597 8.78474027 6.54362679 11.09975404 4.53515625 14.42578125 C-0.23095703 20.74365234 -0.23095703 20.74365234 -4 22 C-4 21.34 -4 20.68 -4 20 C-3.34 20 -2.68 20 -2 20 C0.09321722 14.83673085 1.10447695 11.41292845 0.5625 5.8125 C0.40974609 4.18248047 0.40974609 4.18248047 0.25390625 2.51953125 C0.17011719 1.68808594 0.08632812 0.85664062 0 0 Z " fill="#6F63C5" transform="translate(80,56)"/>
<path d="M0 0 C0 0.66 0 1.32 0 2 C-0.66 2 -1.32 2 -2 2 C-2 2.66 -2 3.32 -2 4 C-2.66 4 -3.32 4 -4 4 C-4 4.66 -4 5.32 -4 6 C-4.66 6 -5.32 6 -6 6 C-6 9.3 -6 12.6 -6 16 C-5.34 16 -4.68 16 -4 16 C-4 16.66 -4 17.32 -4 18 C-3.34 18 -2.68 18 -2 18 C-2 18.66 -2 19.32 -2 20 C-1.34 20 -0.68 20 0 20 C0 20.66 0 21.32 0 22 C-1.65 21.67 -3.3 21.34 -5 21 C-5 20.34 -5 19.68 -5 19 C-5.66 19 -6.32 19 -7 19 C-7 18.34 -7 17.68 -7 17 C-7.66 17 -8.32 17 -9 17 C-8.39425587 5.07310705 -8.39425587 5.07310705 -5 1 C-3 0 -3 0 0 0 Z " fill="#302F58" transform="translate(51,53)"/>
<path d="M0 0 C0 3 0 3 -1.4375 5.375 C-3.00282114 8.00473952 -3.57112625 9.99788375 -4 13 C-4.66 13 -5.32 13 -6 13 C-6 13.66 -6 14.32 -6 15 C-6.66 15 -7.32 15 -8 15 C-8 15.66 -8 16.32 -8 17 C-8.66 17 -9.32 17 -10 17 C-10 17.66 -10 18.32 -10 19 C-10.66 19 -11.32 19 -12 19 C-12 19.66 -12 20.32 -12 21 C-13.65 21.33 -15.3 21.66 -17 22 C-17 21.34 -17 20.68 -17 20 C-16.34 20 -15.68 20 -15 20 C-14.6596875 19.13375 -14.6596875 19.13375 -14.3125 18.25 C-12.67083893 15.43572387 -10.56440947 13.97262267 -8 12 C-7.67 11.34 -7.34 10.68 -7 10 C-6.34 10 -5.68 10 -5 10 C-4.9175 9.46375 -4.835 8.9275 -4.75 8.375 C-3.73623902 5.1647569 -1.92839451 2.73707608 0 0 Z " fill="#645AAC" transform="translate(101,76)"/>
<path d="M0 0 C1.32 0.33 2.64 0.66 4 1 C2.625 3 2.625 3 1 5 C0.34 5 -0.32 5 -1 5 C-1 5.66 -1 6.32 -1 7 C-1.66 7 -2.32 7 -3 7 C-3 7.66 -3 8.32 -3 9 C-3.66 9 -4.32 9 -5 9 C-5 9.66 -5 10.32 -5 11 C-5.66 11 -6.32 11 -7 11 C-7 11.66 -7 12.32 -7 13 C-7.66 13 -8.32 13 -9 13 C-9 13.66 -9 14.32 -9 15 C-9.66 15 -10.32 15 -11 15 C-11.33 15.66 -11.66 16.32 -12 17 C-12 15.35 -12 13.7 -12 12 C-11.34 12 -10.68 12 -10 12 C-10 11.34 -10 10.68 -10 10 C-9.34 10 -8.68 10 -8 10 C-8 9.34 -8 8.68 -8 8 C-7.34 8 -6.68 8 -6 8 C-6 7.34 -6 6.68 -6 6 C-5.34 6 -4.68 6 -4 6 C-4 5.34 -4 4.68 -4 4 C-3.34 4 -2.68 4 -2 4 C-2 3.34 -2 2.68 -2 2 C-1.34 2 -0.68 2 0 2 C0 1.34 0 0.68 0 0 Z " fill="#8986B1" transform="translate(41,27)"/>
<path d="M0 0 C0.99 0 1.98 0 3 0 C3 1.98 3 3.96 3 6 C2.34 6 1.68 6 1 6 C1 7.32 1 8.64 1 10 C0.34 10 -0.32 10 -1 10 C-1 11.32 -1 12.64 -1 14 C-1.66 14 -2.32 14 -3 14 C-3 14.66 -3 15.32 -3 16 C-3.66 16 -4.32 16 -5 16 C-5 16.66 -5 17.32 -5 18 C-5.66 18 -6.32 18 -7 18 C-6.3846388 14.85326658 -5.31502436 12.75256433 -3.5 10.125 C-1.31474297 6.76209725 -0.30474932 4.06332431 0 0 Z " fill="#3D3186" transform="translate(104,69)"/>
<path d="M0 0 C2.625 0 2.625 0 6 1 C7.75758937 2.95568697 9.17601324 4.98227938 10.60546875 7.1875 C11.95979996 9.29718628 11.95979996 9.29718628 15 10 C15.33 11.98 15.66 13.96 16 16 C14.68 15.34 13.36 14.68 12 14 C12 13.01 12 12.02 12 11 C11.42765625 10.75378906 10.8553125 10.50757813 10.265625 10.25390625 C7.63481257 8.79788765 5.85191095 7.08222766 3.75 4.9375 C3.04359375 4.22464844 2.3371875 3.51179688 1.609375 2.77734375 C0 1 0 1 0 0 Z " fill="#5D4ACC" transform="translate(70,45)"/>
<path d="M0 0 C1.32 0 2.64 0 4 0 C4 0.66 4 1.32 4 2 C6.31 2 8.62 2 11 2 C10.34 3.32 9.68 4.64 9 6 C11.97 6.99 14.94 7.98 18 9 C18 9.33 18 9.66 18 10 C11.375 10.25 11.375 10.25 8 8 C8 7.34 8 6.68 8 6 C7.01 6 6.02 6 5 6 C5 5.34 5 4.68 5 4 C4.360625 3.896875 3.72125 3.79375 3.0625 3.6875 C2.381875 3.460625 1.70125 3.23375 1 3 C0.67 2.01 0.34 1.02 0 0 Z " fill="#7269BC" transform="translate(40,96)"/>
<path d="M0 0 C0.99 0 1.98 0 3 0 C3 0.66 3 1.32 3 2 C4.32 2 5.64 2 7 2 C7.66 4.97 8.32 7.94 9 11 C4.545 10.01 4.545 10.01 0 9 C0 8.34 0 7.68 0 7 C1.32 7 2.64 7 4 7 C3.34 6.401875 2.68 5.80375 2 5.1875 C0 3 0 3 0 0 Z " fill="#665BB7" transform="translate(74,21)"/>
<path d="M0 0 C0.66 0 1.32 0 2 0 C2.75 2.125 2.75 2.125 3 5 C1.1875 8.3125 1.1875 8.3125 -1 11 C-1.66 11 -2.32 11 -3 11 C-3 11.66 -3 12.32 -3 13 C-3.66 13 -4.32 13 -5 13 C-5 13.66 -5 14.32 -5 15 C-5.99 15.33 -6.98 15.66 -8 16 C-8 15.34 -8 14.68 -8 14 C-7.34 14 -6.68 14 -6 14 C-5.67 12.35 -5.34 10.7 -5 9 C-4.01 8.67 -3.02 8.34 -2 8 C-2 6.68 -2 5.36 -2 4 C-1.34 4 -0.68 4 0 4 C0 2.68 0 1.36 0 0 Z " fill="#504994" transform="translate(79,65)"/>
<path d="M0 0 C5.28 0 10.56 0 16 0 C15.67 0.99 15.34 1.98 15 3 C10.05 3 5.1 3 0 3 C0 2.01 0 1.02 0 0 Z " fill="#4F4890" transform="translate(51,106)"/>
<path d="M0 0 C0.66 0.33 1.32 0.66 2 1 C1.195625 1.763125 0.39125 2.52625 -0.4375 3.3125 C-3.16799024 5.79430898 -3.16799024 5.79430898 -4 9 C-5.175625 9.0928125 -5.175625 9.0928125 -6.375 9.1875 C-9.14660995 9.72718933 -9.14660995 9.72718933 -10.25 12.0625 C-11.18213362 15.71335669 -11.61870735 19.25062223 -12 23 C-12.33 23 -12.66 23 -13 23 C-13.50227868 16.7215165 -13.21079416 13.02955969 -9 8 C-6.875 5.625 -6.875 5.625 -5 4 C-4.34 4 -3.68 4 -3 4 C-3 3.34 -3 2.68 -3 2 C-2.01 1.34 -1.02 0.68 0 0 Z " fill="#7F7BAB" transform="translate(55,44)"/>
<path d="M0 0 C3.12488815 -0.32382261 4.51390003 -0.38737561 7.01953125 1.609375 C7.61121094 2.31578125 8.20289062 3.0221875 8.8125 3.75 C9.41707031 4.44609375 10.02164063 5.1421875 10.64453125 5.859375 C12 8 12 8 12 12 C11.34 12 10.68 12 10 12 C10 11.34 10 10.68 10 10 C9.34 10 8.68 10 8 10 C7.773125 9.05125 7.54625 8.1025 7.3125 7.125 C6.32371184 3.80955402 6.32371184 3.80955402 3.4375 2.75 C2.633125 2.5025 1.82875 2.255 1 2 C0.67 1.34 0.34 0.68 0 0 Z " fill="#31267D" transform="translate(69,49)"/>
<path d="M0 0 C0.66 0 1.32 0 2 0 C1.67 1.65 1.34 3.3 1 5 C0.34 5 -0.32 5 -1 5 C-1 6.32 -1 7.64 -1 9 C-1.66 9 -2.32 9 -3 9 C-3.33 9.99 -3.66 10.98 -4 12 C-4.66 12 -5.32 12 -6 12 C-6 10.68 -6 9.36 -6 8 C-5.34 8 -4.68 8 -4 8 C-4 6.68 -4 5.36 -4 4 C-3.34 4 -2.68 4 -2 4 C-2 3.34 -2 2.68 -2 2 C-1.34 2 -0.68 2 0 2 C0 1.34 0 0.68 0 0 Z " fill="#4C4982" transform="translate(25,43)"/>
<path d="M0 0 C0.99 0 1.98 0 3 0 C3 0.66 3 1.32 3 2 C1.36395804 3.37073786 -0.30678061 4.70055256 -2 6 C-3.0173873 6.98230498 -4.02596117 7.97469597 -5 9 C-5.99 8.67 -6.98 8.34 -8 8 C-6.8125 5.5625 -6.8125 5.5625 -5 3 C-2.3125 2.1875 -2.3125 2.1875 0 2 C0 1.34 0 0.68 0 0 Z " fill="#9D94E1" transform="translate(63,32)"/>
<path d="M0 0 C5.44324102 2.40142986 8.44281267 6.7909147 11 12 C11.45481649 14.57416756 11.33484027 16.37708456 11 19 C10.67 19 10.34 19 10 19 C9.71125 17.865625 9.4225 16.73125 9.125 15.5625 C8.75375 14.386875 8.3825 13.21125 8 12 C7.34 11.67 6.68 11.34 6 11 C6 10.34 6 9.68 6 9 C5.34 9 4.68 9 4 9 C3.71125 8.030625 3.4225 7.06125 3.125 6.0625 C2.35785318 2.89335797 2.35785318 2.89335797 0 2 C0 1.34 0 0.68 0 0 Z " fill="#5A49C8" transform="translate(93,41)"/>
<path d="M0 0 C0 0.99 0 1.98 0 3 C-8.58 3 -17.16 3 -26 3 C-26 2.67 -26 2.34 -26 2 C-21.49368616 0.93389394 -17.04387624 0.67869223 -12.4375 0.4375 C-11.68275391 0.39431641 -10.92800781 0.35113281 -10.15039062 0.30664062 C-6.75947922 0.11842264 -3.39716842 0 0 0 Z " fill="#8684AB" transform="translate(74,21)"/>
<path d="M0 0 C0 0.66 0 1.32 0 2 C-3 4 -3 4 -6 4 C-6 4.66 -6 5.32 -6 6 C-6.66 6 -7.32 6 -8 6 C-8 6.66 -8 7.32 -8 8 C-8.66 8 -9.32 8 -10 8 C-9.16513153 2.15592068 -5.85032849 -0.6500365 0 0 Z " fill="#38336B" transform="translate(61,45)"/>
<path d="M0 0 C0.66 0 1.32 0 2 0 C2 0.66 2 1.32 2 2 C3.32 2 4.64 2 6 2 C6 2.66 6 3.32 6 4 C6.66 4 7.32 4 8 4 C8 4.66 8 5.32 8 6 C8.66 6 9.32 6 10 6 C10.33 7.65 10.66 9.3 11 11 C9 11 9 11 6.4375 8.6875 C4 6 4 6 3 3 C2.34 3 1.68 3 1 3 C0.67 2.01 0.34 1.02 0 0 Z " fill="#4738A2" transform="translate(89,35)"/>
<path d="M0 0 C2.64 0.33 5.28 0.66 8 1 C8 1.66 8 2.32 8 3 C5.02148438 3.34179688 5.02148438 3.34179688 2.04296875 3.68359375 C-0.19396393 3.97170735 -0.19396393 3.97170735 -3 5 C-3.66 4.34 -4.32 3.68 -5 3 C-4.360625 2.87625 -3.72125 2.7525 -3.0625 2.625 C-2.0415625 2.315625 -2.0415625 2.315625 -1 2 C-0.67 1.34 -0.34 0.68 0 0 Z " fill="#393568" transform="translate(67,106)"/>
<path d="M0 0 C0 3 0 3 -1.4375 5.375 C-3.00282114 8.00473952 -3.57112625 9.99788375 -4 13 C-4.66 13 -5.32 13 -6 13 C-6 13.66 -6 14.32 -6 15 C-6.66 15 -7.32 15 -8 15 C-7.67 13.35 -7.34 11.7 -7 10 C-6.34 10 -5.68 10 -5 10 C-4.9175 9.46375 -4.835 8.9275 -4.75 8.375 C-3.73623902 5.1647569 -1.92839451 2.73707608 0 0 Z " fill="#584EAB" transform="translate(101,76)"/>
<path d="M0 0 C0.66 0 1.32 0 2 0 C4.32590854 3.63423209 4.16265833 6.77088331 4 11 C3.01 11.33 2.02 11.66 1 12 C0.67 8.04 0.34 4.08 0 0 Z " fill="#6459AB" transform="translate(80,56)"/>
<path d="M0 0 C0 0.66 0 1.32 0 2 C-0.969375 2.268125 -1.93875 2.53625 -2.9375 2.8125 C-3.948125 3.204375 -4.95875 3.59625 -6 4 C-6.33 4.99 -6.66 5.98 -7 7 C-9.27208411 8.51472274 -11.56019185 9.78009593 -14 11 C-12.95125002 8.37812506 -12.35068687 7.20628639 -9.875 5.75 C-9.25625 5.5025 -8.6375 5.255 -8 5 C-8 4.34 -8 3.68 -8 3 C-2.25 0 -2.25 0 0 0 Z " fill="#7667D4" transform="translate(74,29)"/>
<path d="M0 0 C0 0.66 0 1.32 0 2 C-0.66 2 -1.32 2 -2 2 C-2 2.66 -2 3.32 -2 4 C-2.66 4 -3.32 4 -4 4 C-4 4.66 -4 5.32 -4 6 C-4.66 6 -5.32 6 -6 6 C-6 7.32 -6 8.64 -6 10 C-6.66 10 -7.32 10 -8 10 C-7.4454626 6.67277559 -6.75986957 3.8986087 -5 1 C-3 0 -3 0 0 0 Z " fill="#47466F" transform="translate(51,53)"/>
<path d="M0 0 C4.62 0 9.24 0 14 0 C13.01 1.485 13.01 1.485 12 3 C7.45100954 3.42915004 4.10789738 2.99170782 0 1 C0 0.67 0 0.34 0 0 Z " fill="#776EC0" transform="translate(56,84)"/>
<path d="M0 0 C1.32 0.66 2.64 1.32 4 2 C2.02 2.33 0.04 2.66 -2 3 C-2 3.66 -2 4.32 -2 5 C-4.875 5.125 -4.875 5.125 -8 5 C-8.66 4.34 -9.32 3.68 -10 3 C-6.7 2.67 -3.4 2.34 0 2 C0 1.34 0 0.68 0 0 Z " fill="#6F64BE" transform="translate(76,101)"/>
<path d="M0 0 C0.99 0.33 1.98 0.66 3 1 C1.35 2.32 -0.3 3.64 -2 5 C-1.125 1.125 -1.125 1.125 0 0 Z M-9 8 C-7.68 8.33 -6.36 8.66 -5 9 C-5.99 9.495 -5.99 9.495 -7 10 C-7.66 9.34 -8.32 8.68 -9 8 Z M-12 10 C-10 11 -10 11 -10 11 Z " fill="#7C6FD9" transform="translate(63,87)"/>
<path d="M0 0 C0.66 0 1.32 0 2 0 C2.625 2.3125 2.625 2.3125 3 5 C2.01 6.485 2.01 6.485 1 8 C0.01 8 -0.98 8 -2 8 C-2 6.68 -2 5.36 -2 4 C-1.34 4 -0.68 4 0 4 C0 2.68 0 1.36 0 0 Z " fill="#322E77" transform="translate(79,65)"/>
<path d="M0 0 C0.99 0.33 1.98 0.66 3 1 C3.33 2.98 3.66 4.96 4 7 C3.34 7 2.68 7 2 7 C2 6.34 2 5.68 2 5 C1.34 5 0.68 5 0 5 C0 3.35 0 1.7 0 0 Z " fill="#353359" transform="translate(19,76)"/>
<path d="M0 0 C1.2065625 0.0309375 1.2065625 0.0309375 2.4375 0.0625 C-2.3125 4.9375 -2.3125 4.9375 -4.5625 6.0625 C-3.48963568 0.08511307 -3.48963568 0.08511307 0 0 Z " fill="#9087D5" transform="translate(57.5625,39.9375)"/>
<path d="M0 0 C1.485 0.99 1.485 0.99 3 2 C3 2.99 3 3.98 3 5 C3.66 5 4.32 5 5 5 C5.66 6.65 6.32 8.3 7 10 C4.09197539 7.78071806 2.04687238 6.07030857 0 3 C0 2.01 0 1.02 0 0 Z " fill="#7872B0" transform="translate(22,76)"/>
<path d="M0 0 C0.66 0 1.32 0 2 0 C2 0.66 2 1.32 2 2 C2.66 2 3.32 2 4 2 C4 2.66 4 3.32 4 4 C4.66 4 5.32 4 6 4 C6 4.66 6 5.32 6 6 C3.83125748 5.49396008 2.00032373 5.00016187 0 4 C0 2.68 0 1.36 0 0 Z " fill="#382D65" transform="translate(51,75)"/>
<path d="M0 0 C1.32 0.33 2.64 0.66 4 1 C4 2.32 4 3.64 4 5 C5.32 5.66 6.64 6.32 8 7 C5 7 5 7 3 6 C3 5.34 3 4.68 3 4 C2.34 4 1.68 4 1 4 C0.67 2.68 0.34 1.36 0 0 Z " fill="#6963A3" transform="translate(47,74)"/>
<path d="M0 0 C0.33 0.66 0.66 1.32 1 2 C1.66 2 2.32 2 3 2 C3 2.66 3 3.32 3 4 C3.66 4 4.32 4 5 4 C5.33 5.32 5.66 6.64 6 8 C5.01 8 4.02 8 3 8 C0.89229241 5.11165997 0 3.61537605 0 0 Z " fill="#7E78B5" transform="translate(41,68)"/>
<path d="M0 0 C0.66 0 1.32 0 2 0 C1.67 1.65 1.34 3.3 1 5 C0.34 5 -0.32 5 -1 5 C-1 6.32 -1 7.64 -1 9 C-1.66 8.67 -2.32 8.34 -3 8 C-2.67 6.02 -2.34 4.04 -2 2 C-1.34 2 -0.68 2 0 2 C0 1.34 0 0.68 0 0 Z " fill="#656197" transform="translate(25,43)"/>
<path d="M0 0 C0.33 1.32 0.66 2.64 1 4 C0.34 4 -0.32 4 -1 4 C-1 4.66 -1 5.32 -1 6 C-2.32 6 -3.64 6 -5 6 C-5 5.34 -5 4.68 -5 4 C-3.37373596 2.61767557 -1.7074998 1.28062485 0 0 Z " fill="#30264F" transform="translate(72,75)"/>
<path d="M0 0 C2.3125 -0.25 2.3125 -0.25 5 0 C6.8125 2 6.8125 2 8 4 C4.31245243 3.50168276 2.39509338 2.89932357 0 0 Z " fill="#392B75" transform="translate(69,49)"/>
<path d="M0 0 C1.485 0.99 1.485 0.99 3 2 C3 2.66 3 3.32 3 4 C4.32 4.66 5.64 5.32 7 6 C7 6.66 7 7.32 7 8 C6.34 8 5.68 8 5 8 C5 7.34 5 6.68 5 6 C4.360625 5.7525 3.72125 5.505 3.0625 5.25 C1 4 1 4 0.25 1.875 C0.1675 1.25625 0.085 0.6375 0 0 Z " fill="#5A49BE" transform="translate(83,30)"/>
<path d="M0 0 C0.99 0 1.98 0 3 0 C3 0.66 3 1.32 3 2 C4.32 2 5.64 2 7 2 C7 2.66 7 3.32 7 4 C4.69 3.67 2.38 3.34 0 3 C0 2.01 0 1.02 0 0 Z " fill="#454464" transform="translate(74,21)"/>
</svg>
